<svg width="26" height="20" viewBox="0 0 26 20" fill="none" xmlns="http://www.w3.org/2000/svg">
<path d="M21.7736 2.40825C20.2094 1.67925 18.532 1.14216 16.7782 0.834542C16.7463 0.828605 16.7144 0.843442 16.6979 0.873116C16.4822 1.26283 16.2433 1.77124 16.0759 2.17084C14.1896 1.884 12.313 1.884 10.4653 2.17084C10.298 1.76235 10.0503 1.26283 9.83363 0.873116C9.81718 0.844432 9.78528 0.829596 9.75334 0.834542C8.00051 1.14117 6.32314 1.67827 4.75797 2.40825C4.74442 2.41418 4.7328 2.42408 4.7251 2.43693C1.54348 7.26487 0.671898 11.9741 1.09947 16.625C1.1014 16.6478 1.11398 16.6695 1.13139 16.6834C3.23053 18.2492 5.26391 19.1997 7.25952 19.8298C7.29146 19.8397 7.3253 19.8278 7.34563 19.8011C7.81769 19.1463 8.23849 18.4559 8.59929 17.7299C8.62058 17.6873 8.60026 17.6369 8.55674 17.6201C7.88928 17.3629 7.25372 17.0494 6.64235 16.6933C6.594 16.6646 6.59013 16.5943 6.63461 16.5607C6.76326 16.4628 6.89195 16.3609 7.0148 16.258C7.03702 16.2393 7.068 16.2353 7.09413 16.2472C11.1105 18.1097 15.4588 18.1097 19.4278 16.2472C19.4539 16.2343 19.4849 16.2383 19.5081 16.2571C19.6309 16.3599 19.7596 16.4628 19.8892 16.5607C19.9337 16.5943 19.9308 16.6646 19.8824 16.6933C19.2711 17.0563 18.6355 17.3629 17.9671 17.6191C17.9236 17.6359 17.9042 17.6873 17.9255 17.7299C18.294 18.4549 18.7148 19.1453 19.1782 19.8001C19.1976 19.8278 19.2324 19.8397 19.2643 19.8298C21.2696 19.1997 23.303 18.2492 25.4021 16.6834C25.4205 16.6695 25.4321 16.6488 25.434 16.626C25.9458 11.2491 24.577 6.57843 21.8055 2.43792C21.7987 2.42408 21.7872 2.41418 21.7736 2.40825ZM9.19908 13.7931C7.98986 13.7931 6.99351 12.6655 6.99351 11.2807C6.99351 9.89595 7.97054 8.76837 9.19908 8.76837C10.4373 8.76837 11.424 9.90585 11.4046 11.2807C11.4046 12.6655 10.4276 13.7931 9.19908 13.7931ZM17.3538 13.7931C16.1446 13.7931 15.1483 12.6655 15.1483 11.2807C15.1483 9.89595 16.1253 8.76837 17.3538 8.76837C18.592 8.76837 19.5787 9.90585 19.5594 11.2807C19.5594 12.6655 18.592 13.7931 17.3538 13.7931Z" fill="#6C7388"/>
</svg>
