<svg width="28" height="27" viewBox="0 0 28 27" fill="none" xmlns="http://www.w3.org/2000/svg">
<path d="M9.87797 21.7026C9.87797 21.8106 9.75316 21.897 9.59578 21.897C9.4167 21.9132 9.29189 21.8268 9.29189 21.7026C9.29189 21.5945 9.4167 21.5081 9.57408 21.5081C9.73688 21.4919 9.87797 21.5783 9.87797 21.7026ZM8.19026 21.4595C8.15227 21.5675 8.2608 21.6918 8.42361 21.7242C8.5647 21.7782 8.7275 21.7242 8.76006 21.6161C8.79262 21.5081 8.68952 21.3838 8.52671 21.3352C8.38562 21.2974 8.22824 21.3514 8.19026 21.4595ZM10.5889 21.3676C10.4315 21.4054 10.323 21.5081 10.3392 21.6323C10.3555 21.7404 10.4966 21.8106 10.6594 21.7728C10.8168 21.735 10.9253 21.6323 10.9091 21.5243C10.8928 21.4216 10.7463 21.3514 10.5889 21.3676ZM14.1597 0.666748C6.63278 0.666748 0.875 6.35517 0.875 13.8479C0.875 19.8388 4.66287 24.9654 10.0733 26.7697C10.768 26.894 11.0122 26.4672 11.0122 26.1161C11.0122 25.7812 10.9959 23.9336 10.9959 22.7992C10.9959 22.7992 7.19716 23.6095 6.39943 21.1894C6.39943 21.1894 5.78078 19.6173 4.89079 19.2122C4.89079 19.2122 3.64807 18.3641 4.97762 18.3803C4.97762 18.3803 6.32888 18.4883 7.07235 19.774C8.2608 21.8592 10.2524 21.2596 11.0284 20.903C11.1533 20.0387 11.506 19.4391 11.8967 19.0825C8.86317 18.7476 5.80249 18.31 5.80249 13.1132C5.80249 11.6276 6.21492 10.8821 7.0832 9.93136C6.9421 9.58023 6.48083 8.13246 7.22429 6.26333C8.35848 5.9122 10.9688 7.7219 10.9688 7.7219C12.0541 7.41938 13.2208 7.26272 14.3767 7.26272C15.5326 7.26272 16.6994 7.41938 17.7847 7.7219C17.7847 7.7219 20.395 5.90679 21.5292 6.26333C22.2727 8.13786 21.8114 9.58023 21.6703 9.93136C22.5386 10.8875 23.0704 11.633 23.0704 13.1132C23.0704 18.3262 19.874 18.7422 16.8405 19.0825C17.3398 19.5093 17.763 20.3196 17.763 21.5891C17.763 23.4096 17.7468 25.6623 17.7468 26.1053C17.7468 26.4564 17.9964 26.8832 18.6856 26.7589C24.1123 24.9654 27.7917 19.8388 27.7917 13.8479C27.7917 6.35517 21.6866 0.666748 14.1597 0.666748ZM6.1498 19.2986C6.07925 19.3526 6.09553 19.4769 6.18779 19.5795C6.27461 19.666 6.39943 19.7038 6.46998 19.6336C6.54052 19.5795 6.52424 19.4553 6.43199 19.3526C6.34516 19.2662 6.22035 19.2284 6.1498 19.2986ZM5.56371 18.861C5.52572 18.9313 5.57999 19.0177 5.68852 19.0717C5.77535 19.1258 5.88389 19.1095 5.92188 19.0339C5.95986 18.9637 5.90559 18.8773 5.79706 18.8232C5.68852 18.7908 5.6017 18.807 5.56371 18.861ZM7.32198 20.7842C7.23515 20.8544 7.26771 21.0165 7.39252 21.1191C7.51734 21.2434 7.67471 21.2596 7.74526 21.1732C7.81581 21.1029 7.78325 20.9409 7.67471 20.8382C7.55533 20.714 7.39252 20.6978 7.32198 20.7842ZM6.70333 19.9901C6.6165 20.0441 6.6165 20.1846 6.70333 20.3088C6.79015 20.4331 6.93668 20.4871 7.00722 20.4331C7.09405 20.3628 7.09405 20.2224 7.00722 20.0981C6.93125 19.9739 6.79015 19.9199 6.70333 19.9901Z" fill="#6C7388"/>
</svg>
