<svg width="20" height="17" viewBox="0 0 20 17" fill="none" xmlns="http://www.w3.org/2000/svg">
<path fill-rule="evenodd" clip-rule="evenodd" d="M17.9167 4.37657C17.9167 4.37599 17.9167 4.37542 17.9167 4.37484C17.9167 4.37478 17.9167 4.37472 17.9167 4.37466L19.7721 2.37263C20.0746 2.0463 19.8026 1.52051 19.3615 1.57885L17.0368 1.88632C16.3111 0.98973 15.2016 0.416504 13.9583 0.416504C11.7722 0.416504 10 2.18871 10 4.37484C10 4.89679 10.101 5.39514 10.2846 5.85141C7.3194 5.78207 4.14454 5.19533 2.53939 2.01507C2.34076 1.62155 1.77136 1.59876 1.64492 2.02104C0.483412 5.90022 2.52751 10.9404 7.03103 12.2915C5.90757 13.39 3.0196 13.6882 0.65626 13.4718C0.196371 13.4297 -0.0923447 13.9536 0.263296 14.2482C2.24496 15.8897 4.99341 16.2498 7.5259 16.2498C13.9575 16.2498 18.4104 10.8081 17.9167 4.37657Z" fill="#6C7388"/>
</svg>
